<svg xmlns="http://www.w3.org/2000/svg" viewBox="0 0 1200 700"><rect width="1200" height="700" fill="#f5f7fa"/><rect x="55" y="55" width="1090" height="590" rx="28" fill="#ffffff" stroke="#dbe2ea" stroke-width="3"/><text x="600" y="115" text-anchor="middle" font-family="Arial" font-size="38" font-weight="700" fill="#23384d">Kubernetes Microservices with Istio &amp; Redis</text><rect x="110" y="190" width="250" height="120" rx="18" fill="#eef4ff" stroke="#557aa3" stroke-width="3"/><text x="235" y="235" text-anchor="middle" font-family="Arial" font-size="27" font-weight="700" fill="#23384d">Istio Gateway</text><text x="235" y="272" text-anchor="middle" font-family="Arial" font-size="19" fill="#536579">Traffic Entry</text><rect x="475" y="190" width="250" height="120" rx="18" fill="#f7f9fc" stroke="#8ba0b5" stroke-width="3"/><text x="600" y="235" text-anchor="middle" font-family="Arial" font-size="27" font-weight="700" fill="#23384d">VirtualService</text><text x="600" y="272" text-anchor="middle" font-family="Arial" font-size="19" fill="#536579">Routing Rules</text><rect x="840" y="190" width="250" height="120" rx="18" fill="#eef4ff" stroke="#557aa3" stroke-width="3"/><text x="965" y="235" text-anchor="middle" font-family="Arial" font-size="27" font-weight="700" fill="#23384d">Kubernetes</text><text x="965" y="272" text-anchor="middle" font-family="Arial" font-size="19" fill="#536579">Cluster</text><path d="M360 250h115M725 250h115" stroke="#557aa3" stroke-width="5"/><path d="M460 238l18 12-18 12M825 238l18 12-18 12" fill="#557aa3"/><rect x="155" y="400" width="250" height="120" rx="18" fill="#f7f9fc" stroke="#8ba0b5" stroke-width="3"/><text x="280" y="445" text-anchor="middle" font-family="Arial" font-size="27" font-weight="700" fill="#23384d">Nginx Frontend</text><text x="280" y="482" text-anchor="middle" font-family="Arial" font-size="19" fill="#536579">Docker + Service</text><rect x="475" y="400" width="250" height="120" rx="18" fill="#f7f9fc" stroke="#8ba0b5" stroke-width="3"/><text x="600" y="445" text-anchor="middle" font-family="Arial" font-size="27" font-weight="700" fill="#23384d">Node.js Backend</text><text x="600" y="482" text-anchor="middle" font-family="Arial" font-size="19" fill="#536579">REST APIs</text><rect x="795" y="400" width="250" height="120" rx="18" fill="#f7f9fc" stroke="#8ba0b5" stroke-width="3"/><text x="920" y="445" text-anchor="middle" font-family="Arial" font-size="27" font-weight="700" fill="#23384d">Redis</text><text x="920" y="482" text-anchor="middle" font-family="Arial" font-size="19" fill="#536579">Caching</text><path d="M600 310v80M280 310v90M965 310v90" stroke="#8ba0b5" stroke-width="4" stroke-dasharray="10 8"/><text x="600" y="585" text-anchor="middle" font-family="Arial" font-size="22" fill="#536579">Ingress → Service Routing → Frontend → Backend → Redis Cache</text></svg>